<?xml version="1.0" standalone="no"?>
<!DOCTYPE svg PUBLIC "-//W3C//DTD SVG 20010904//EN"
 "http://www.w3.org/TR/2001/REC-SVG-20010904/DTD/svg10.dtd">
<svg version="1.0" xmlns="http://www.w3.org/2000/svg"
 width="581.000000pt" height="581.000000pt" viewBox="0 0 581.000000 581.000000"
 preserveAspectRatio="xMidYMid meet">
<metadata>
Created by potrace 1.11, written by Peter Selinger 2001-2013
</metadata>
<g transform="translate(0.000000,581.000000) scale(0.100000,-0.100000)"
fill="#000000" stroke="none">
<path d="M3260 5793 c-28 -10 -92 -78 -135 -143 -45 -70 -115 -271 -130 -378
-2 -15 -7 -49 -11 -77 -10 -77 -18 -83 -39 -28 -27 72 -111 235 -165 316 -47
73 -140 165 -194 194 -38 20 -87 34 -97 27 -16 -10 15 -93 176 -474 86 -204
104 -255 153 -435 35 -129 44 -175 34 -175 -4 -1 -38 -3 -77 -5 -111 -6 -173
-14 -317 -39 -146 -26 -388 -107 -548 -183 -145 -70 -146 -70 -294 -168 -398
-265 -708 -659 -879 -1115 -24 -64 -80 -257 -91 -315 -13 -64 -16 -82 -22
-125 -3 -25 -8 -54 -10 -65 -16 -80 -22 -360 -10 -495 27 -325 149 -709 300
-948 14 -23 26 -44 26 -48 0 -5 90 -139 117 -174 88 -114 128 -159 206 -239
73 -75 214 -199 282 -249 342 -248 731 -395 1150 -435 508 -48 987 64 1435
336 185 113 433 331 571 502 130 162 281 414 339 565 11 30 25 64 30 75 26 58
81 250 96 335 3 14 7 31 9 38 2 7 7 34 11 60 3 26 8 49 9 52 24 40 24 621 1
659 -2 3 -7 30 -10 59 -3 30 -8 57 -10 61 -2 3 -7 26 -11 51 -4 25 -9 48 -12
52 -2 5 -6 20 -9 34 -8 43 -81 257 -110 320 -66 147 -86 186 -148 288 -147
241 -296 411 -549 624 -45 37 -177 126 -267 178 -199 116 -424 205 -647 255
-58 12 -103 27 -103 34 0 25 43 175 77 267 36 100 52 134 191 399 45 86 82
161 82 167 0 21 -41 13 -96 -19 -86 -48 -158 -143 -264 -344 -35 -66 -74 -140
-88 -165 l-24 -45 7 100 c9 151 19 243 30 285 2 8 7 35 10 60 4 25 13 81 20
125 8 44 17 103 20 130 4 28 8 61 11 75 2 14 7 58 10 98 7 75 4 80 -36 65z"/>
</g>
</svg>
